v 1.026636 0.001972 -0.241520
v 1.008092 0.027498 -0.279979
v 1.029621 0.011114 -0.290326
v 1.231451 0.444765 -0.516489
v 1.114066 0.320461 -0.804098
v 0.944491 0.472001 -0.686377
v 0.868158 0.380245 -0.724798
v 1.104687 0.200244 -0.838479
v 1.056318 0.004327 -0.281369
v 1.352403 0.241736 -0.753341
v 1.397990 0.125684 -0.740073
v 1.072544 0.011114 -0.258354
v 1.519888 0.281943 -0.563841
v 1.576255 0.200243 -0.487224
v 1.068794 0.027498 -0.234764
v 1.518411 0.417529 -0.346602
v 1.535056 0.380245 -0.228048
v 1.047265 0.043882 -0.224416
v 1.348836 0.569070 -0.228881
v 1.298527 0.560247 -0.114367
v 1.020568 0.050669 -0.233373
v 1.110499 0.647795 -0.279637
v 1.005224 0.634806 -0.212774
v 1.004341 0.043882 -0.256388
v 0.943014 0.607587 -0.469138
v 0.826959 0.560247 -0.465622
v 0.711028 0.388138 -0.559888
v 0.790630 0.287640 -0.693133
v 0.731155 0.431651 -0.586909
v 0.799730 0.307315 -0.705351
v 0.796630 0.547120 -0.240111
v 0.745144 0.486369 -0.406992
v 0.816758 0.590633 -0.267132
v 0.754245 0.506044 -0.419210
v 1.091141 0.547120 -0.020740
v 0.941957 0.568686 -0.127836
v 1.111268 0.590633 -0.047762
v 0.951057 0.588361 -0.140054
v 1.422039 0.388138 -0.030280
v 1.265776 0.486369 -0.019191
v 1.442167 0.431651 -0.057301
v 1.274877 0.506044 -0.031409
v 1.595490 0.163303 -0.263141
v 1.526914 0.287640 -0.144700
v 1.615617 0.206817 -0.290163
v 1.536015 0.307315 -0.156918
v 1.509887 0.004321 -0.582918
v 1.572400 0.088910 -0.430841
v 1.530015 0.047835 -0.609939
v 1.581500 0.108585 -0.443058
v 1.215377 0.004321 -0.802289
v 1.375588 0.006594 -0.709996
v 1.235504 0.047835 -0.829310
v 1.384688 0.026269 -0.722214
v 0.884478 0.163303 -0.792749
v 1.051768 0.088910 -0.818641
v 0.904606 0.206817 -0.819771
v 1.060869 0.108585 -0.830859
vn -0.365703 -0.790674 0.490982
vn -0.771691 -0.634816 0.038118
vn -0.432600 -0.892880 -0.124851
vn 0.365703 0.790643 -0.490982
vn 0.138554 0.539323 -0.830592
vn -0.084323 0.752983 -0.652577
vn -0.391156 0.491928 -0.777795
vn 0.054720 0.156255 -0.986175
vn -0.012085 -0.999786 0.016205
vn 0.469893 0.419630 -0.776574
vn 0.603046 0.019837 -0.797449
vn 0.243477 -0.892880 0.378735
vn 0.715537 0.463973 -0.522202
vn 0.932615 0.162572 -0.322123
vn 0.184423 -0.634816 0.750298
vn 0.731651 0.646382 -0.216437
vn 0.850368 0.500809 0.161290
vn -0.154668 -0.376751 0.913297
vn 0.508713 0.860042 -0.038392
vn 0.404462 0.836482 0.369671
vn -0.575182 -0.269845 0.772210
vn 0.177374 0.979766 -0.092410
vn -0.143834 0.972900 0.180944
vn -0.830744 -0.376751 0.409680
vn -0.068239 0.935423 -0.346812
vn -0.473403 0.830195 -0.294351
vn -0.988372 -0.139439 -0.060244
vn -0.881405 -0.324870 -0.342845
vn -0.730094 0.501389 -0.464278
vn -0.710288 0.161596 -0.685080
vn -0.828364 0.157720 0.537492
vn -0.971740 0.069796 0.225410
vn -0.563463 0.810846 0.158147
vn -0.807276 0.585376 -0.074923
vn -0.277810 0.157720 0.947569
vn -0.580859 0.233283 0.779839
vn 0.009766 0.810846 0.585162
vn -0.387585 0.760918 0.520341
vn 0.340709 -0.139439 0.929746
vn 0.062227 0.069796 0.995605
vn 0.653859 0.501389 0.566576
vn 0.302927 0.585376 0.752007
vn 0.664968 -0.559740 0.494430
vn 0.580859 -0.324870 0.746330
vn 0.991485 0.063753 0.113315
vn 0.859767 0.161596 0.484390
vn 0.504929 -0.856929 -0.103305
vn 0.671194 -0.719535 0.178045
vn 0.824885 -0.245674 -0.509110
vn 0.956786 -0.262154 -0.125767
vn -0.045564 -0.856929 -0.513382
vn 0.280313 -0.883023 -0.376354
vn 0.251595 -0.245674 -0.936094
vn 0.537095 -0.437696 -0.721061
vn -0.664144 -0.559740 -0.495560
vn -0.362774 -0.719535 -0.592120
vn -0.392468 0.063753 -0.917539
vn -0.153417 -0.262154 -0.952727
f 1//1 2//2 3//3
f 4//4 5//5 6//6
f 7//7 5//5 8//8
f 1//1 3//3 9//9
f 4//4 10//10 5//5
f 8//8 10//10 11//11
f 1//1 9//9 12//12
f 4//4 13//13 10//10
f 11//11 13//13 14//14
f 1//1 12//12 15//15
f 4//4 16//16 13//13
f 14//14 16//16 17//17
f 1//1 15//15 18//18
f 4//4 19//19 16//16
f 17//17 19//19 20//20
f 1//1 18//18 21//21
f 4//4 22//22 19//19
f 20//20 22//22 23//23
f 1//1 21//21 24//24
f 4//4 25//25 22//22
f 23//23 25//25 26//26
f 1//1 24//24 2//2
f 4//4 6//6 25//25
f 26//26 6//6 7//7
f 27//27 28//28 2//2
f 27//27 29//29 30//30
f 30//30 28//28 27//27
f 7//7 30//30 29//29
f 31//31 32//32 24//24
f 31//31 33//33 34//34
f 34//34 32//32 31//31
f 26//26 34//34 33//33
f 35//35 36//36 21//21
f 35//35 37//37 38//38
f 38//38 36//36 35//35
f 23//23 38//38 37//37
f 39//39 40//40 18//18
f 39//39 41//41 42//42
f 42//42 40//40 39//39
f 20//20 42//42 41//41
f 43//43 44//44 15//15
f 43//43 45//45 46//46
f 46//46 44//44 43//43
f 17//17 46//46 45//45
f 47//47 48//48 12//12
f 47//47 49//49 50//50
f 50//50 48//48 47//47
f 14//14 50//50 49//49
f 51//51 52//52 9//9
f 51//51 53//53 54//54
f 54//54 52//52 51//51
f 11//11 54//54 53//53
f 55//55 56//56 3//3
f 55//55 57//57 58//58
f 58//58 56//56 55//55
f 8//8 58//58 57//57
f 28//28 30//30 57//57
f 57//57 55//55 28//28
f 56//56 58//58 53//53
f 53//53 51//51 56//56
f 52//52 54//54 49//49
f 49//49 47//47 52//52
f 48//48 50//50 45//45
f 45//45 43//43 48//48
f 44//44 46//46 41//41
f 41//41 39//39 44//44
f 40//40 42//42 37//37
f 37//37 35//35 40//40
f 36//36 38//38 33//33
f 33//33 31//31 36//36
f 32//32 34//34 29//29
f 29//29 27//27 32//32
f 2//2 24//24 27//27
f 24//24 32//32 27//27
f 29//29 34//34 26//26
f 26//26 7//7 29//29
f 24//24 21//21 31//31
f 21//21 36//36 31//31
f 33//33 38//38 23//23
f 23//23 26//26 33//33
f 21//21 18//18 35//35
f 18//18 40//40 35//35
f 37//37 42//42 20//20
f 20//20 23//23 37//37
f 18//18 15//15 39//39
f 15//15 44//44 39//39
f 41//41 46//46 17//17
f 17//17 20//20 41//41
f 15//15 12//12 43//43
f 12//12 48//48 43//43
f 45//45 50//50 14//14
f 14//14 17//17 45//45
f 12//12 9//9 47//47
f 9//9 52//52 47//47
f 49//49 54//54 11//11
f 11//11 14//14 49//49
f 9//9 3//3 51//51
f 3//3 56//56 51//51
f 53//53 58//58 8//8
f 8//8 11//11 53//53
f 3//3 2//2 55//55
f 2//2 28//28 55//55
f 57//57 30//30 7//7
f 7//7 8//8 57//57
f 7//7 6//6 5//5
f 8//8 5//5 10//10
f 11//11 10//10 13//13
f 14//14 13//13 16//16
f 17//17 16//16 19//19
f 20//20 19//19 22//22
f 23//23 22//22 25//25
f 26//26 25//25 6//6
