v 0.850751 0.004318 -0.971171
v 0.842364 0.013742 -0.957824
v 0.834903 0.007693 -0.962526
v 0.724572 0.167790 -0.981251
v 0.657676 0.121899 -0.888099
v 0.727768 0.177845 -0.858178
v 0.730735 0.143970 -0.826768
v 0.648766 0.077517 -0.878419
v 0.832465 0.005188 -0.972632
v 0.626772 0.092835 -0.972588
v 0.621974 0.049991 -0.989447
v 0.836477 0.007693 -0.982222
v 0.653158 0.107679 -1.062150
v 0.666053 0.077516 -1.094813
v 0.844589 0.013742 -0.985680
v 0.721377 0.157735 -1.104323
v 0.755181 0.143970 -1.132796
v 0.852050 0.019791 -0.980978
v 0.791468 0.213681 -1.074402
v 0.837150 0.210423 -1.081145
v 0.854489 0.022296 -0.970872
v 0.822373 0.242744 -0.989914
v 0.863942 0.237949 -0.970117
v 0.850477 0.019791 -0.961282
v 0.795987 0.227901 -0.900351
v 0.819863 0.210423 -0.864751
v 0.813139 0.146884 -0.810000
v 0.755852 0.109782 -0.808740
v 0.800740 0.162948 -0.810990
v 0.750245 0.117045 -0.809188
v 0.896332 0.205577 -0.899526
v 0.854254 0.183149 -0.850675
v 0.883932 0.221641 -0.900516
v 0.848647 0.190413 -0.851123
v 0.907128 0.205577 -1.034671
v 0.902918 0.213539 -0.967004
v 0.894728 0.221641 -1.035662
v 0.897312 0.220803 -0.967452
v 0.839203 0.146884 -1.136269
v 0.873338 0.183149 -1.089583
v 0.826804 0.162948 -1.137260
v 0.867732 0.190413 -1.090031
v 0.732347 0.063879 -1.144806
v 0.782842 0.109782 -1.146608
v 0.719948 0.079943 -1.145796
v 0.777235 0.117045 -1.147055
v 0.649155 0.005185 -1.055279
v 0.684440 0.036414 -1.104673
v 0.636755 0.021250 -1.056270
v 0.678834 0.043678 -1.105121
v 0.638359 0.005186 -0.920134
v 0.635776 0.006024 -0.988344
v 0.625959 0.021250 -0.921124
v 0.630169 0.013288 -0.988792
v 0.706284 0.063879 -0.818536
v 0.665355 0.036414 -0.865765
v 0.693884 0.079943 -0.819526
v 0.659749 0.043678 -0.866213
vn 0.610279 -0.790643 0.048738
vn 0.442518 -0.634816 0.633351
vn 0.124180 -0.892911 0.432752
vn -0.610279 0.790643 -0.048738
vn -0.777154 0.539323 0.324168
vn -0.507859 0.752983 0.418348
vn -0.450850 0.491928 0.744774
vn -0.864376 0.156255 0.477889
vn 0.020142 -0.999786 0.001587
vn -0.907559 0.419630 0.014832
vn -0.996002 0.019837 -0.086856
vn 0.191321 -0.892880 -0.407544
vn -0.822687 0.463973 -0.328471
vn -0.768609 0.162572 -0.618671
vn 0.537461 -0.634816 -0.555071
vn -0.572253 0.646382 -0.504624
vn -0.315409 0.500809 -0.805994
vn 0.855770 -0.376720 -0.354503
vn -0.302957 0.860042 -0.410443
vn 0.098086 0.836482 -0.539109
vn 0.959838 -0.269845 0.076662
vn -0.172582 0.979766 -0.101108
vn 0.229713 0.972900 0.025636
vn 0.788659 -0.376720 0.485855
vn -0.257454 0.935423 0.242164
vn 0.002319 0.830195 0.557451
vn 0.474380 -0.139439 0.869167
vn 0.178167 -0.324870 0.928800
vn -0.005097 0.501389 0.865200
vn -0.202673 0.161596 0.965789
vn 0.895627 0.157720 0.415876
vn 0.707511 0.069796 0.703207
vn 0.433485 0.810846 0.393170
vn 0.365673 0.585376 0.723594
vn 0.950285 0.157720 -0.268410
vn 0.969298 0.233283 0.077425
vn 0.490402 0.810846 -0.319376
vn 0.646748 0.760918 0.051637
vn 0.606342 -0.139439 -0.782830
vn 0.810175 0.069796 -0.581988
vn 0.132298 0.501389 -0.855037
vn 0.475906 0.585376 -0.656362
vn 0.065279 -0.559709 -0.826075
vn 0.323344 -0.324839 -0.888760
vn -0.431104 0.063753 -0.900021
vn -0.046785 0.161596 -0.985717
vn -0.355937 -0.856929 -0.372753
vn -0.206000 -0.719535 -0.663167
vn -0.869716 -0.245674 -0.428022
vn -0.615162 -0.262154 -0.743522
vn -0.410596 -0.856929 0.311533
vn -0.467757 -0.883023 -0.037355
vn -0.926633 -0.245705 0.284524
vn -0.896237 -0.437696 -0.071566
vn -0.066652 -0.559740 0.825953
vn -0.308664 -0.719535 0.622028
vn -0.568499 0.063723 0.820185
vn -0.725394 -0.262154 0.636433
f 1//1 2//2 3//3
f 4//4 5//5 6//6
f 7//7 5//5 8//8
f 1//1 3//3 9//9
f 4//4 10//10 5//5
f 8//8 10//10 11//11
f 1//1 9//9 12//12
f 4//4 13//13 10//10
f 11//11 13//13 14//14
f 1//1 12//12 15//15
f 4//4 16//16 13//13
f 14//14 16//16 17//17
f 1//1 15//15 18//18
f 4//4 19//19 16//16
f 17//17 19//19 20//20
f 1//1 18//18 21//21
f 4//4 22//22 19//19
f 20//20 22//22 23//23
f 1//1 21//21 24//24
f 4//4 25//25 22//22
f 23//23 25//25 26//26
f 1//1 24//24 2//2
f 4//4 6//6 25//25
f 26//26 6//6 7//7
f 27//27 28//28 2//2
f 27//27 29//29 30//30
f 30//30 28//28 27//27
f 7//7 30//30 29//29
f 31//31 32//32 24//24
f 31//31 33//33 34//34
f 34//34 32//32 31//31
f 26//26 34//34 33//33
f 35//35 36//36 21//21
f 35//35 37//37 38//38
f 38//38 36//36 35//35
f 23//23 38//38 37//37
f 39//39 40//40 18//18
f 39//39 41//41 42//42
f 42//42 40//40 39//39
f 20//20 42//42 41//41
f 43//43 44//44 15//15
f 43//43 45//45 46//46
f 46//46 44//44 43//43
f 17//17 46//46 45//45
f 47//47 48//48 12//12
f 47//47 49//49 50//50
f 50//50 48//48 47//47
f 14//14 50//50 49//49
f 51//51 52//52 9//9
f 51//51 53//53 54//54
f 54//54 52//52 51//51
f 11//11 54//54 53//53
f 55//55 56//56 3//3
f 55//55 57//57 58//58
f 58//58 56//56 55//55
f 8//8 58//58 57//57
f 28//28 30//30 57//57
f 57//57 55//55 28//28
f 56//56 58//58 53//53
f 53//53 51//51 56//56
f 52//52 54//54 49//49
f 49//49 47//47 52//52
f 48//48 50//50 45//45
f 45//45 43//43 48//48
f 44//44 46//46 41//41
f 41//41 39//39 44//44
f 40//40 42//42 37//37
f 37//37 35//35 40//40
f 36//36 38//38 33//33
f 33//33 31//31 36//36
f 32//32 34//34 29//29
f 29//29 27//27 32//32
f 2//2 24//24 27//27
f 24//24 32//32 27//27
f 29//29 34//34 26//26
f 26//26 7//7 29//29
f 24//24 21//21 31//31
f 21//21 36//36 31//31
f 33//33 38//38 23//23
f 23//23 26//26 33//33
f 21//21 18//18 35//35
f 18//18 40//40 35//35
f 37//37 42//42 20//20
f 20//20 23//23 37//37
f 18//18 15//15 39//39
f 15//15 44//44 39//39
f 41//41 46//46 17//17
f 17//17 20//20 41//41
f 15//15 12//12 43//43
f 12//12 48//48 43//43
f 45//45 50//50 14//14
f 14//14 17//17 45//45
f 12//12 9//9 47//47
f 9//9 52//52 47//47
f 49//49 54//54 11//11
f 11//11 14//14 49//49
f 9//9 3//3 51//51
f 3//3 56//56 51//51
f 53//53 58//58 8//8
f 8//8 11//11 53//53
f 3//3 2//2 55//55
f 2//2 28//28 55//55
f 57//57 30//30 7//7
f 7//7 8//8 57//57
f 7//7 6//6 5//5
f 8//8 5//5 10//10
f 11//11 10//10 13//13
f 14//14 13//13 16//16
f 17//17 16//16 19//19
f 20//20 19//19 22//22
f 23//23 22//22 25//25
f 26//26 25//25 6//6
